<svg version="1.2" xmlns="http://www.w3.org/2000/svg" viewBox="0 0 580 147" width="580" height="147"><style>.a{fill:#fff}</style><path class="a" d="m5.2 146.8c-1.3 0-2.6-0.5-3.5-1.5-1.9-2-1.9-5.1 0-7.1l137.8-136.7c2-1.9 5.1-1.9 7.1 0 1.9 2 1.9 5.1 0 7.1l-137.9 136.8c-0.9 1-2.2 1.4-3.5 1.4z"/><path class="a" d="m190.2 143.3c-24.7 0-48.4-14.5-60.3-36.9-12.6-23.7-10.1-51.6 6.9-76.6 1.5-2.3 4.7-2.9 6.9-1.3 2.3 1.5 2.9 4.7 1.3 6.9-14.8 21.8-17.1 46-6.3 66.3 10.2 19.2 30.3 31.6 51.3 31.6 19.9-0.3 35.8-7.5 47.4-21.2 8.9-10.5 13.5-23.5 14.1-31.7 0.2-2.8 2.6-4.8 5.3-4.6 2.8 0.2 4.8 2.6 4.6 5.3-0.6 9.1-5.3 24.3-16.4 37.4-9.1 11.1-26.2 24.3-54.8 24.8z"/><path class="a" d="m305.4 69.3v-14.7l-7 8-7-8v14.7h-6.3v-24.9h4.1l9.2 10.7 9.2-10.7h4.1v24.9z"/><path class="a" d="m344.2 56.8c0 7.1-5.7 12.8-12.8 12.8-7.1 0-12.8-5.7-12.8-12.8 0-7.1 5.7-12.8 12.8-12.8 7 0 12.8 5.7 12.8 12.8zm-19.2 0c0 4.1 3.1 6.6 6.4 6.6 3.3 0 6.4-2.5 6.4-6.6 0-4.1-3.1-6.7-6.4-6.7-3.4 0-6.4 2.6-6.4 6.7z"/><path class="a" d="m372 48.6l-3.8 4.1c-2-1.9-3.8-2.5-6-2.5-3.3 0-6.4 2.5-6.4 6.6 0 4.1 3.1 6.6 6.4 6.6 2.2 0 4-0.6 6-2.5l3.8 4.1c-2.3 2.8-5.9 4.6-9.8 4.6-7.1 0-12.8-5.7-12.8-12.8 0-7.1 5.7-12.8 12.8-12.8 3.9 0.1 7.5 1.9 9.8 4.6z"/><path class="a" d="m384.8 69.3h-6.3v-24.9h6.3v9.1h3.7l6.6-9.1h7l-8.7 12.2 9.1 12.8h-7.1l-7-9.7h-3.7v9.6z"/><path class="a" d="m431.3 56.8c0 7.1-5.7 12.8-12.8 12.8-7.1 0-12.8-5.7-12.8-12.8 0-7.1 5.7-12.8 12.8-12.8 7.1 0 12.8 5.7 12.8 12.8zm-19.2 0c0 4.1 3.1 6.6 6.4 6.6 3.3 0 6.4-2.5 6.4-6.6 0-4.1-3.1-6.7-6.4-6.7-3.3 0-6.4 2.6-6.4 6.7z"/><path class="a" d="m451.3 44.4c5.9 0 8.6 2.5 8.6 6.8 0 2.3-0.9 4.3-3.4 5.1 3 0.7 4.5 2.8 4.5 5.6 0 5.3-2.9 7.4-9.7 7.4h-13.1v-24.9zm-6.7 9.8h6.4c1.8-0.1 2.6-0.9 2.6-2.2 0-1.3-0.8-2.2-2.7-2.2h-6.3zm6.9 9.7c2.4 0 3.2-1.1 3.2-2.6 0-1.4-0.8-2.5-3.1-2.5h-7v5.1z"/><path class="a" d="m488.9 48.6l-3.8 4.1c-2-1.9-3.8-2.5-6-2.5-3.3 0-6.4 2.5-6.4 6.6 0 4.1 3.1 6.6 6.4 6.6 2.2 0 4-0.6 6-2.5l3.8 4.1c-2.3 2.8-5.9 4.6-9.8 4.6-7.1 0-12.8-5.7-12.8-12.8 0-7.1 5.7-12.8 12.8-12.8 3.9 0.1 7.4 1.9 9.8 4.6z"/><path class="a" d="m501.7 69.3h-6.3v-24.9h6.3v9.1h3.7l6.6-9.1h7l-8.7 12.2 9.1 12.8h-7.1l-7-9.7h-3.7v9.6z"/><path class="a" d="m541.8 69.3v-14.7l-12.8 14.7h-4.1v-24.9h6.3v14.7l12.8-14.7h4.1v24.9z"/><path class="a" d="m573.4 69.3v-14.7l-12.8 14.7h-4.1v-24.9h6.3v14.7l12.8-14.7h4.1v24.9zm-13-34.7h4.4c0 1.8 1.5 3.2 3.4 3.2 1.9 0 3.5-1.4 3.5-3.2h4.3c0 4.4-3.5 7.6-7.8 7.6-4.4 0-7.8-3.2-7.8-7.6z"/><path class="a" d="m302.3 115.8v-18.8h-10.9v18.8h-6.3v-24.9h23.5v24.9z"/><path fill-rule="evenodd" class="a" d="m335.8 103.5z"/><path class="a" d="m335.6 105.5c0.1 0 0.1 0 0.1-0.1 0-0.1 0-0.1-0.1-0.1-0.1 0-0.1 0-0.1 0.1-0.1 0.1 0 0.1 0.1 0.1z"/><path class="a" d="m334.8 107.4c0.1 0 0.2-0.1 0.2-0.2 0-0.1-0.1-0.2-0.2-0.2-0.1 0-0.2 0.1-0.2 0.2 0 0.1 0.1 0.2 0.2 0.2z"/><path fill-rule="evenodd" class="a" d="m333.7 109c-0.2 0-0.3-0.1-0.3-0.3 0-0.2 0.1-0.3 0.3-0.3 0.2 0 0.3 0.1 0.3 0.3 0 0.2-0.1 0.3-0.3 0.3z"/><path class="a" d="m332.3 110.3q0.3 0 0.3-0.3 0-0.3-0.3-0.3-0.3 0-0.3 0.3c-0.1 0.1 0.1 0.3 0.3 0.3z"/><path class="a" d="m330.6 111.1q0.3 0 0.3-0.3 0-0.3-0.3-0.3-0.3 0-0.3 0.3c-0.1 0.2 0.1 0.3 0.3 0.3z"/><path class="a" d="m328.7 111.5q0.3 0 0.3-0.3 0-0.3-0.3-0.3-0.3 0-0.3 0.3c-0.1 0.1 0.1 0.3 0.3 0.3z"/><path class="a" d="m326.8 111.3c0.2 0 0.3-0.2 0.3-0.4 0-0.2-0.1-0.4-0.3-0.4-0.2 0-0.4 0.2-0.4 0.4 0 0.2 0.2 0.4 0.4 0.4z"/><path class="a" d="m325 110.8c0.2 0 0.4-0.2 0.4-0.4 0-0.2-0.2-0.4-0.4-0.4-0.2 0-0.4 0.2-0.4 0.4 0 0.2 0.1 0.4 0.4 0.4z"/><path class="a" d="m323.4 109.8c0.2 0 0.4-0.2 0.4-0.4 0-0.2-0.2-0.4-0.4-0.4-0.2 0-0.4 0.2-0.4 0.4 0 0.2 0.1 0.4 0.4 0.4z"/><path class="a" d="m322.1 108.5c0.3 0 0.5-0.2 0.5-0.5 0-0.3-0.2-0.5-0.5-0.5-0.3 0-0.5 0.2-0.5 0.5 0 0.3 0.2 0.5 0.5 0.5z"/><path class="a" d="m321.1 106.9c0.3 0 0.6-0.2 0.6-0.6 0-0.3-0.2-0.6-0.6-0.6-0.3 0-0.6 0.2-0.6 0.6 0.1 0.3 0.3 0.6 0.6 0.6z"/><path class="a" d="m320.7 105.1c0.3 0 0.6-0.3 0.6-0.6 0-0.3-0.3-0.6-0.6-0.6-0.3 0-0.6 0.3-0.6 0.6-0.1 0.3 0.2 0.6 0.6 0.6z"/><path class="a" d="m320.7 103.2c0.4 0 0.6-0.3 0.6-0.6 0-0.4-0.3-0.6-0.6-0.6-0.4 0-0.6 0.3-0.6 0.6 0 0.3 0.2 0.6 0.6 0.6z"/><path fill-rule="evenodd" class="a" d="m321.1 101.4c-0.4 0-0.7-0.3-0.7-0.7 0-0.4 0.3-0.7 0.7-0.7 0.4 0 0.7 0.3 0.7 0.7 0 0.4-0.3 0.7-0.7 0.7z"/><path class="a" d="m322.1 99.8c0.4 0 0.7-0.3 0.7-0.7 0-0.4-0.3-0.7-0.7-0.7-0.4 0-0.7 0.3-0.7 0.7-0.1 0.3 0.3 0.7 0.7 0.7z"/><path class="a" d="m323.4 98.4c0.4 0 0.8-0.3 0.8-0.8 0-0.5-0.3-0.8-0.8-0.8-0.4 0-0.8 0.3-0.8 0.8 0 0.5 0.3 0.8 0.8 0.8z"/><path class="a" d="m325 97.4c0.4 0 0.8-0.4 0.8-0.8 0-0.4-0.4-0.8-0.8-0.8-0.4 0-0.8 0.4-0.8 0.8 0 0.5 0.3 0.8 0.8 0.8z"/><path class="a" d="m326.8 96.9c0.5 0 0.8-0.4 0.8-0.8 0-0.5-0.4-0.8-0.8-0.8-0.5 0-0.8 0.4-0.8 0.8-0.1 0.4 0.3 0.8 0.8 0.8z"/><path class="a" d="m328.7 96.8c0.5 0 0.8-0.4 0.8-0.8 0-0.5-0.4-0.8-0.8-0.8-0.5 0-0.8 0.4-0.8 0.8-0.1 0.4 0.3 0.8 0.8 0.8z"/><path class="a" d="m330.6 97.1c0.5 0 0.9-0.4 0.9-0.9 0-0.5-0.4-0.8-0.9-0.8-0.5 0-0.9 0.4-0.9 0.9 0 0.5 0.4 0.8 0.9 0.8z"/><path class="a" d="m332.3 98c0.5 0 0.9-0.4 0.9-0.9 0-0.5-0.4-0.9-0.9-0.9-0.5 0-0.9 0.4-0.9 0.9 0 0.5 0.4 0.9 0.9 0.9z"/><path class="a" d="m333.7 99.2c0.5 0 0.9-0.4 0.9-0.9 0-0.5-0.4-0.9-0.9-0.9-0.5 0-0.9 0.4-0.9 0.9 0.1 0.5 0.4 0.9 0.9 0.9z"/><path class="a" d="m334.8 100.7c0.5 0 0.9-0.4 0.9-0.9 0-0.5-0.4-0.9-0.9-0.9-0.5 0-0.9 0.4-0.9 0.9 0 0.5 0.5 0.9 0.9 0.9z"/><path fill-rule="evenodd" class="a" d="m335.5 102.5c-0.5 0-0.9-0.4-0.9-0.9 0-0.5 0.4-0.9 0.9-0.9 0.5 0 0.9 0.4 0.9 0.9 0 0.5-0.4 0.9-0.9 0.9z"/><path fill-rule="evenodd" class="a" d="m337.3 103.5z"/><path class="a" d="m337.1 105.5q0.1 0 0 0c0.1-0.1 0-0.2 0-0.2 0 0-0.1 0.1 0 0.2q-0.2 0 0 0z"/><path class="a" d="m336.5 107.4c0.1 0 0.2-0.1 0.2-0.2 0-0.1-0.1-0.2-0.2-0.2-0.1 0-0.2 0.1-0.2 0.2 0.1 0.1 0.1 0.2 0.2 0.2z"/><path fill-rule="evenodd" class="a" d="m335.6 109.1c-0.1 0-0.2-0.1-0.2-0.2 0-0.1 0.1-0.2 0.2-0.2 0.1 0 0.2 0.1 0.2 0.2 0 0.1-0.1 0.2-0.2 0.2z"/><path fill-rule="evenodd" class="a" d="m334.3 110.6c-0.2 0-0.3-0.1-0.3-0.3 0-0.2 0.1-0.3 0.3-0.3 0.2 0 0.3 0.1 0.3 0.3 0 0.2-0.1 0.3-0.3 0.3z"/><path class="a" d="m332.7 111.7q0.3 0 0.3-0.3 0-0.3-0.3-0.3-0.3 0-0.3 0.3 0.1 0.3 0.3 0.3z"/><path class="a" d="m331 112.5q0.3 0 0.3-0.3 0-0.3-0.3-0.3-0.3 0-0.3 0.3 0 0.3 0.3 0.3z"/><path class="a" d="m329.1 113q0.3 0 0.3-0.3 0-0.3-0.3-0.3-0.3 0-0.3 0.3c0 0.1 0.1 0.3 0.3 0.3z"/><path class="a" d="m327.2 113c0.2 0 0.3-0.2 0.3-0.4 0-0.2-0.1-0.4-0.3-0.4-0.2 0-0.4 0.2-0.4 0.4 0.1 0.2 0.2 0.4 0.4 0.4z"/><path class="a" d="m325.4 112.6c0.2 0 0.4-0.2 0.4-0.4 0-0.2-0.2-0.4-0.4-0.4-0.2 0-0.4 0.2-0.4 0.4 0 0.2 0.2 0.4 0.4 0.4z"/><path class="a" d="m323.6 111.8c0.2 0 0.4-0.2 0.4-0.4 0-0.2-0.2-0.4-0.4-0.4-0.2 0-0.4 0.2-0.4 0.4 0 0.3 0.2 0.4 0.4 0.4z"/><path fill-rule="evenodd" class="a" d="m322.1 110.8c-0.3 0-0.5-0.2-0.5-0.5 0-0.3 0.2-0.5 0.5-0.5 0.3 0 0.5 0.2 0.5 0.5 0 0.3-0.2 0.5-0.5 0.5z"/><path class="a" d="m320.8 109.4c0.3 0 0.5-0.2 0.5-0.5 0-0.3-0.2-0.5-0.5-0.5-0.3 0-0.5 0.2-0.5 0.5 0 0.3 0.3 0.5 0.5 0.5z"/><path class="a" d="m319.9 107.9c0.3 0 0.6-0.3 0.6-0.6 0-0.3-0.3-0.6-0.6-0.6-0.3 0-0.6 0.3-0.6 0.6 0 0.3 0.2 0.6 0.6 0.6z"/><path class="a" d="m319.3 106c0.3 0 0.6-0.3 0.6-0.6 0-0.3-0.3-0.6-0.6-0.6-0.3 0-0.6 0.3-0.6 0.6q0 0.6 0.6 0.6z"/><path class="a" d="m319.1 104.2c0.3 0 0.6-0.3 0.6-0.6 0-0.3-0.3-0.6-0.6-0.6-0.3 0-0.6 0.3-0.6 0.6 0 0.3 0.2 0.6 0.6 0.6z"/><path class="a" d="m319.3 102.3c0.3 0 0.6-0.3 0.6-0.6 0-0.3-0.3-0.6-0.6-0.6-0.3 0-0.6 0.3-0.6 0.6-0.1 0.3 0.2 0.6 0.6 0.6z"/><path class="a" d="m319.9 100.5c0.4 0 0.7-0.3 0.7-0.7 0-0.4-0.3-0.7-0.7-0.7-0.4 0-0.7 0.3-0.7 0.7 0 0.4 0.3 0.7 0.7 0.7z"/><path class="a" d="m320.8 98.9c0.4 0 0.7-0.3 0.7-0.7 0-0.4-0.3-0.7-0.7-0.7-0.4 0-0.7 0.3-0.7 0.7 0 0.4 0.3 0.7 0.7 0.7z"/><path class="a" d="m322.1 97.5c0.4 0 0.8-0.3 0.8-0.8 0-0.4-0.3-0.8-0.8-0.8-0.4 0-0.8 0.3-0.8 0.8 0 0.4 0.4 0.8 0.8 0.8z"/><path class="a" d="m323.6 96.4c0.4 0 0.8-0.3 0.8-0.8 0-0.4-0.3-0.8-0.8-0.8-0.4 0-0.8 0.3-0.8 0.8 0 0.4 0.4 0.8 0.8 0.8z"/><path class="a" d="m325.4 95.7c0.5 0 0.8-0.4 0.8-0.8 0-0.5-0.4-0.8-0.8-0.8-0.5 0-0.8 0.4-0.8 0.8 0 0.4 0.3 0.8 0.8 0.8z"/><path class="a" d="m327.2 95.3c0.5 0 0.8-0.4 0.8-0.8 0-0.5-0.4-0.8-0.8-0.8-0.5 0-0.8 0.4-0.8 0.8 0 0.4 0.4 0.8 0.8 0.8z"/><path class="a" d="m329.1 95.3c0.5 0 0.8-0.4 0.8-0.8 0-0.5-0.4-0.8-0.8-0.8-0.5 0-0.8 0.4-0.8 0.8 0 0.4 0.4 0.8 0.8 0.8z"/><path class="a" d="m331 95.7c0.5 0 0.9-0.4 0.9-0.9 0-0.5-0.4-0.9-0.9-0.9-0.5 0-0.9 0.4-0.9 0.9 0.1 0.5 0.5 0.9 0.9 0.9z"/><path class="a" d="m332.7 96.5c0.5 0 0.9-0.4 0.9-0.9 0-0.5-0.4-0.9-0.9-0.9-0.5 0-0.9 0.4-0.9 0.9 0.1 0.5 0.5 0.9 0.9 0.9z"/><path class="a" d="m334.3 97.6c0.5 0 0.9-0.4 0.9-0.9 0-0.5-0.4-0.9-0.9-0.9-0.5 0-0.9 0.4-0.9 0.9 0 0.5 0.4 0.9 0.9 0.9z"/><path class="a" d="m335.6 99c0.5 0 0.9-0.4 0.9-0.9 0-0.5-0.4-0.9-0.9-0.9-0.5 0-0.9 0.4-0.9 0.9 0 0.5 0.4 0.9 0.9 0.9z"/><path class="a" d="m336.5 100.7c0.5 0 0.9-0.4 0.9-0.9 0-0.5-0.4-0.9-0.9-0.9-0.5 0-0.9 0.4-0.9 0.9 0 0.5 0.4 0.9 0.9 0.9z"/><path class="a" d="m337.1 102.6c0.5 0 0.9-0.4 0.9-0.9 0-0.5-0.4-0.9-0.9-0.9-0.5 0-0.9 0.4-0.9 0.9 0 0.4 0.4 0.9 0.9 0.9z"/><path class="a" d="m338.8 103.5c0 0 0.1 0 0 0 0.1 0 0-0.1 0 0 0-0.1 0 0 0 0z"/><path class="a" d="m338.6 105.5q0.1 0 0 0c0.1-0.1 0-0.2 0-0.2 0 0 0 0.1 0 0.2z"/><path class="a" d="m338.2 107.4c0.1 0 0.1-0.1 0.1-0.1 0-0.1-0.1-0.1-0.1-0.1l-0.1 0.1c-0.1 0 0 0.1 0.1 0.1z"/><path class="a" d="m337.3 109.2c0.1 0 0.2-0.1 0.2-0.2 0-0.1-0.1-0.2-0.2-0.2-0.1 0-0.2 0.1-0.2 0.2 0 0.1 0.1 0.2 0.2 0.2z"/><path class="a" d="m336.2 110.8c0.1 0 0.2-0.1 0.2-0.2 0-0.1-0.1-0.2-0.2-0.2-0.1 0-0.2 0.1-0.2 0.2 0 0.1 0.1 0.2 0.2 0.2z"/><path class="a" d="m334.8 112.1q0.3 0 0.3-0.3 0-0.3-0.3-0.3-0.3 0-0.3 0.3 0 0.3 0.3 0.3z"/><path class="a" d="m333.2 113.2q0.3 0 0.3-0.3 0-0.3-0.3-0.3-0.3 0-0.3 0.3 0 0.3 0.3 0.3z"/><path class="a" d="m331.5 114q0.3 0 0.3-0.3 0-0.3-0.3-0.3-0.3 0-0.3 0.3c-0.1 0.1 0.1 0.3 0.3 0.3z"/><path class="a" d="m329.6 114.4q0.3 0 0.3-0.3 0-0.3-0.3-0.3-0.3 0-0.3 0.3 0 0.3 0.3 0.3z"/><path class="a" d="m327.7 114.5c0.2 0 0.4-0.2 0.4-0.4 0-0.2-0.1-0.4-0.4-0.4-0.2 0-0.4 0.2-0.4 0.4 0.1 0.3 0.2 0.4 0.4 0.4z"/><path class="a" d="m325.8 114.3c0.2 0 0.4-0.2 0.4-0.4 0-0.2-0.2-0.4-0.4-0.4-0.2 0-0.4 0.2-0.4 0.4 0 0.2 0.2 0.4 0.4 0.4z"/><path class="a" d="m324 113.7c0.2 0 0.4-0.2 0.4-0.4 0-0.2-0.2-0.4-0.4-0.4-0.2 0-0.4 0.2-0.4 0.4 0 0.2 0.2 0.4 0.4 0.4z"/><path class="a" d="m322.4 112.8c0.2 0 0.4-0.2 0.4-0.4 0-0.2-0.2-0.4-0.4-0.4-0.2 0-0.4 0.2-0.4 0.4-0.1 0.3 0.1 0.4 0.4 0.4z"/><path class="a" d="m320.8 111.7c0.3 0 0.5-0.2 0.5-0.5 0-0.3-0.2-0.5-0.5-0.5-0.3 0-0.5 0.2-0.5 0.5 0.1 0.3 0.3 0.5 0.5 0.5z"/><path class="a" d="m319.6 110.3c0.3 0 0.5-0.2 0.5-0.5 0-0.3-0.2-0.5-0.5-0.5-0.3 0-0.5 0.2-0.5 0.5 0 0.3 0.2 0.5 0.5 0.5z"/><path class="a" d="m318.6 108.7c0.3 0 0.6-0.2 0.6-0.6 0-0.3-0.2-0.6-0.6-0.6-0.3 0-0.6 0.2-0.6 0.6q0.1 0.6 0.6 0.6z"/><path class="a" d="m318 107c0.3 0 0.6-0.3 0.6-0.6 0-0.3-0.3-0.6-0.6-0.6-0.3 0-0.6 0.3-0.6 0.6 0 0.3 0.2 0.6 0.6 0.6z"/><path class="a" d="m317.6 105.1c0.3 0 0.6-0.3 0.6-0.6 0-0.3-0.3-0.6-0.6-0.6-0.3 0-0.6 0.3-0.6 0.6 0 0.3 0.3 0.6 0.6 0.6z"/><path class="a" d="m317.6 103.2c0.4 0 0.6-0.3 0.6-0.6 0-0.4-0.3-0.6-0.6-0.6-0.4 0-0.6 0.3-0.6 0.6 0 0.3 0.3 0.6 0.6 0.6z"/><path fill-rule="evenodd" class="a" d="m318 101.4c-0.4 0-0.7-0.3-0.7-0.7 0-0.4 0.3-0.7 0.7-0.7 0.4 0 0.7 0.3 0.7 0.7 0 0.4-0.3 0.7-0.7 0.7z"/><path class="a" d="m318.6 99.6c0.4 0 0.7-0.3 0.7-0.7 0-0.4-0.3-0.7-0.7-0.7-0.4 0-0.7 0.3-0.7 0.7 0 0.4 0.4 0.7 0.7 0.7z"/><path fill-rule="evenodd" class="a" d="m319.6 97.9c-0.4 0-0.7-0.3-0.7-0.7 0-0.4 0.3-0.7 0.7-0.7 0.4 0 0.7 0.3 0.7 0.7 0 0.4-0.3 0.7-0.7 0.7z"/><path class="a" d="m320.8 96.6c0.4 0 0.7-0.3 0.7-0.7 0-0.4-0.3-0.7-0.7-0.7-0.4 0-0.7 0.3-0.7 0.7 0 0.3 0.4 0.7 0.7 0.7z"/><path class="a" d="m322.4 95.4c0.4 0 0.8-0.3 0.8-0.8 0-0.4-0.3-0.8-0.8-0.8-0.4 0-0.8 0.3-0.8 0.8 0 0.5 0.3 0.8 0.8 0.8z"/><path class="a" d="m324 94.5c0.4 0 0.8-0.4 0.8-0.8 0-0.4-0.4-0.8-0.8-0.8-0.4 0-0.8 0.4-0.8 0.8 0 0.5 0.4 0.8 0.8 0.8z"/><path class="a" d="m325.8 94c0.5 0 0.8-0.4 0.8-0.8 0-0.5-0.4-0.8-0.8-0.8-0.5 0-0.8 0.4-0.8 0.8 0 0.4 0.4 0.8 0.8 0.8z"/><path class="a" d="m327.7 93.7c0.5 0 0.8-0.4 0.8-0.8 0-0.5-0.4-0.8-0.8-0.8-0.5 0-0.8 0.4-0.8 0.8 0 0.4 0.4 0.8 0.8 0.8z"/><path class="a" d="m329.6 93.8c0.5 0 0.8-0.4 0.8-0.9 0-0.5-0.4-0.9-0.8-0.9-0.5 0-0.8 0.4-0.8 0.9 0 0.5 0.3 0.9 0.8 0.9z"/><path class="a" d="m331.5 94.2c0.5 0 0.9-0.4 0.9-0.9 0-0.5-0.4-0.9-0.9-0.9-0.5 0-0.9 0.4-0.9 0.9 0 0.5 0.4 0.9 0.9 0.9z"/><path class="a" d="m333.2 95c0.5 0 0.9-0.4 0.9-0.9 0-0.5-0.4-0.9-0.9-0.9-0.5 0-0.9 0.4-0.9 0.9 0.1 0.5 0.5 0.9 0.9 0.9z"/><path class="a" d="m334.8 96c0.5 0 0.9-0.4 0.9-0.9 0-0.5-0.4-0.9-0.9-0.9-0.5 0-0.9 0.4-0.9 0.9 0.1 0.5 0.5 0.9 0.9 0.9z"/><path class="a" d="m336.2 97.4c0.5 0 0.9-0.4 0.9-0.9 0-0.5-0.4-0.9-0.9-0.9-0.5 0-0.9 0.4-0.9 0.9 0 0.5 0.4 0.9 0.9 0.9z"/><path class="a" d="m337.3 99c0.5 0 0.9-0.4 0.9-0.9 0-0.5-0.4-0.9-0.9-0.9-0.5 0-0.9 0.4-0.9 0.9 0 0.5 0.4 0.9 0.9 0.9z"/><path class="a" d="m338.2 100.7c0.5 0 0.9-0.4 0.9-0.9 0-0.5-0.4-0.9-0.9-0.9-0.5 0-0.9 0.4-0.9 0.9-0.1 0.5 0.3 0.9 0.9 0.9z"/><path fill-rule="evenodd" class="a" d="m338.6 102.5c-0.5 0-0.9-0.4-0.9-0.9 0-0.5 0.4-0.9 0.9-0.9 0.5 0 0.9 0.4 0.9 0.9 0 0.5-0.4 0.9-0.9 0.9z"/><path fill-rule="evenodd" class="a" d="m340.2 105.4z"/><path class="a" d="m339.8 107.4c0.1 0 0.1-0.1 0.1-0.1 0-0.1-0.1-0.1-0.1-0.1l-0.1 0.1c-0.1 0.1 0 0.1 0.1 0.1z"/><path class="a" d="m339 109.2c0.1 0 0.1-0.1 0.1-0.1l-0.1-0.1-0.1 0.1c0 0 0 0.1 0.1 0.1z"/><path class="a" d="m338 110.9c0.1 0 0.2-0.1 0.2-0.2 0-0.1-0.1-0.2-0.2-0.2-0.1 0-0.2 0.1-0.2 0.2 0 0.1 0.1 0.2 0.2 0.2z"/><path class="a" d="m336.8 112.4c0.1 0 0.3-0.1 0.3-0.3 0-0.1-0.1-0.3-0.3-0.3q-0.3 0-0.3 0.3 0 0.3 0.3 0.3z"/><path class="a" d="m335.3 113.7q0.3 0 0.3-0.3 0-0.3-0.3-0.3-0.3 0-0.3 0.3c0 0.1 0.2 0.3 0.3 0.3z"/><path class="a" d="m333.7 114.7q0.3 0 0.3-0.3 0-0.3-0.3-0.3-0.3 0-0.3 0.3 0 0.3 0.3 0.3z"/><path class="a" d="m332 115.4q0.3 0 0.3-0.3 0-0.3-0.3-0.3-0.3 0-0.3 0.3c-0.1 0.2 0.1 0.3 0.3 0.3z"/><path class="a" d="m330.1 115.9q0.3 0 0.3-0.3 0-0.3-0.3-0.3-0.3 0-0.3 0.3 0 0.3 0.3 0.3z"/><path class="a" d="m328.2 116.1q0.3 0 0.3-0.3 0-0.3-0.3-0.3-0.3 0-0.3 0.3c-0.1 0.1 0.1 0.3 0.3 0.3z"/><path class="a" d="m326.3 115.9c0.2 0 0.3-0.2 0.3-0.4 0-0.2-0.1-0.4-0.3-0.4-0.2 0-0.4 0.2-0.4 0.4 0 0.2 0.2 0.4 0.4 0.4z"/><path class="a" d="m324.5 115.5c0.2 0 0.4-0.2 0.4-0.4 0-0.2-0.2-0.4-0.4-0.4-0.2 0-0.4 0.2-0.4 0.4 0 0.2 0.1 0.4 0.4 0.4z"/><path class="a" d="m322.7 114.8c0.2 0 0.4-0.2 0.4-0.4 0-0.2-0.2-0.4-0.4-0.4-0.2 0-0.4 0.2-0.4 0.4 0 0.2 0.2 0.4 0.4 0.4z"/><path class="a" d="m321.1 113.8c0.2 0 0.4-0.2 0.4-0.4 0-0.2-0.2-0.4-0.4-0.4-0.2 0-0.4 0.2-0.4 0.4-0.1 0.2 0.1 0.4 0.4 0.4z"/><path class="a" d="m319.6 112.6c0.3 0 0.5-0.2 0.5-0.5 0-0.3-0.2-0.5-0.5-0.5-0.3 0-0.5 0.2-0.5 0.5 0 0.3 0.2 0.5 0.5 0.5z"/><path class="a" d="m318.4 111.2c0.3 0 0.6-0.2 0.6-0.6 0-0.3-0.2-0.6-0.6-0.6-0.3 0-0.6 0.2-0.6 0.6 0 0.4 0.3 0.6 0.6 0.6z"/><path class="a" d="m317.4 109.6c0.3 0 0.6-0.2 0.6-0.6 0-0.3-0.2-0.6-0.6-0.6-0.3 0-0.6 0.2-0.6 0.6 0 0.4 0.3 0.6 0.6 0.6z"/><path class="a" d="m316.6 107.9c0.3 0 0.6-0.3 0.6-0.6 0-0.3-0.3-0.6-0.6-0.6-0.3 0-0.6 0.2-0.6 0.6 0 0.3 0.3 0.6 0.6 0.6z"/><path class="a" d="m316.2 106.1c0.3 0 0.6-0.3 0.6-0.6 0-0.3-0.3-0.6-0.6-0.6-0.3 0-0.6 0.3-0.6 0.6 0 0.3 0.3 0.6 0.6 0.6z"/><path class="a" d="m316.1 104.2c0.3 0 0.6-0.3 0.6-0.6 0-0.3-0.3-0.6-0.6-0.6-0.3 0-0.6 0.3-0.6 0.6-0.1 0.3 0.2 0.6 0.6 0.6z"/><path class="a" d="m316.2 102.3c0.4 0 0.6-0.3 0.6-0.6 0-0.3-0.3-0.6-0.6-0.6-0.4 0-0.6 0.3-0.6 0.6 0 0.3 0.3 0.6 0.6 0.6z"/><path fill-rule="evenodd" class="a" d="m316.6 100.4c-0.4 0-0.7-0.3-0.7-0.7 0-0.4 0.3-0.7 0.7-0.7 0.4 0 0.7 0.3 0.7 0.7 0 0.4-0.3 0.7-0.7 0.7z"/><path class="a" d="m317.4 98.7c0.4 0 0.7-0.3 0.7-0.7 0-0.4-0.3-0.7-0.7-0.7-0.4 0-0.7 0.3-0.7 0.7 0 0.4 0.3 0.7 0.7 0.7z"/><path class="a" d="m318.4 97.1c0.4 0 0.7-0.3 0.7-0.7 0-0.4-0.3-0.7-0.7-0.7-0.4 0-0.7 0.3-0.7 0.7 0 0.4 0.3 0.7 0.7 0.7z"/><path class="a" d="m319.6 95.6c0.4 0 0.7-0.3 0.7-0.7 0-0.4-0.3-0.7-0.7-0.7-0.4 0-0.7 0.3-0.7 0.7 0 0.4 0.3 0.7 0.7 0.7z"/><path class="a" d="m321.1 94.4c0.4 0 0.8-0.3 0.8-0.8 0-0.4-0.3-0.8-0.8-0.8-0.5 0-0.8 0.3-0.8 0.8 0 0.5 0.3 0.8 0.8 0.8z"/><path class="a" d="m322.7 93.5c0.4 0 0.8-0.4 0.8-0.8 0-0.4-0.4-0.8-0.8-0.8-0.4 0-0.8 0.4-0.8 0.8 0 0.4 0.4 0.8 0.8 0.8z"/><path class="a" d="m324.5 92.8c0.4 0 0.8-0.4 0.8-0.8 0-0.4-0.4-0.8-0.8-0.8-0.4 0-0.8 0.4-0.8 0.8-0.1 0.4 0.3 0.8 0.8 0.8z"/><path class="a" d="m326.3 92.3c0.5 0 0.8-0.4 0.8-0.8 0-0.5-0.4-0.9-0.8-0.9-0.5 0-0.8 0.4-0.8 0.8 0 0.4 0.3 0.9 0.8 0.9z"/><path class="a" d="m328.2 92.2c0.5 0 0.8-0.4 0.8-0.8 0-0.5-0.4-0.8-0.8-0.8-0.5 0-0.8 0.4-0.8 0.8-0.1 0.4 0.3 0.8 0.8 0.8z"/><path class="a" d="m330.1 92.3c0.5 0 0.8-0.4 0.8-0.8 0-0.5-0.4-0.8-0.8-0.8-0.5 0-0.8 0.4-0.8 0.8 0 0.5 0.3 0.8 0.8 0.8z"/><path class="a" d="m332 92.8c0.5 0 0.8-0.4 0.8-0.9 0-0.5-0.4-0.9-0.8-0.9-0.5 0-0.8 0.4-0.8 0.9-0.1 0.5 0.3 0.9 0.8 0.9z"/><path class="a" d="m333.7 93.5c0.5 0 0.9-0.4 0.9-0.9 0-0.5-0.4-0.9-0.9-0.9-0.5 0-0.9 0.4-0.9 0.9 0 0.5 0.4 0.9 0.9 0.9z"/><path class="a" d="m335.3 94.5c0.5 0 0.9-0.4 0.9-0.9 0-0.5-0.4-0.9-0.9-0.9-0.5 0-0.9 0.4-0.9 0.9 0.1 0.5 0.4 0.9 0.9 0.9z"/><path class="a" d="m336.8 95.8c0.5 0 0.9-0.4 0.9-0.9 0-0.5-0.4-0.9-0.9-0.9-0.5 0-0.9 0.4-0.9 0.9 0 0.5 0.4 0.9 0.9 0.9z"/><path class="a" d="m338 97.2c0.5 0 0.9-0.4 0.9-0.9 0-0.5-0.4-0.9-0.9-0.9-0.5 0-0.9 0.4-0.9 0.9 0 0.5 0.4 0.9 0.9 0.9z"/><path class="a" d="m339 98.9c0.5 0 0.9-0.4 0.9-0.9 0-0.5-0.4-0.9-0.9-0.9-0.5 0-0.9 0.4-0.9 0.9 0 0.5 0.4 0.9 0.9 0.9z"/><path class="a" d="m339.7 100.7c0.5 0 0.9-0.4 0.9-0.9 0-0.5-0.4-0.9-0.9-0.9-0.5 0-0.9 0.4-0.9 0.9 0 0.5 0.4 0.9 0.9 0.9z"/><path class="a" d="m340.2 102.6c0.5 0 1-0.4 1-1 0-0.5-0.4-1-1-1-0.5 0-1 0.4-1 1 0 0.5 0.5 1 1 1z"/><path class="a" d="m341.3 103.5c0 1.8-1.5 3.3-3.2 3.3-1.8 0-3.2-1.5-3.2-3.3 0-1.8 1.5-3.3 3.2-3.3 1.7 0.1 3.2 1.5 3.2 3.3z"/><path class="a" d="m341.3 103.5c0 1.8-1.5 3.3-3.2 3.3-1.8 0-3.2-1.5-3.2-3.3 0-1.8 1.5-3.3 3.2-3.3 1.7 0.1 3.2 1.5 3.2 3.3z"/><path class="a" d="m341.3 103.5c0 1.8-1.5 3.3-3.2 3.3-1.8 0-3.2-1.5-3.2-3.3 0-1.8 1.5-3.3 3.2-3.3 1.7 0.1 3.2 1.5 3.2 3.3z"/><path class="a" d="m350.6 115.8h-6.7l11.5-24.9h4.1l11.5 24.9h-6.7l-6.9-15.6z"/><path class="a" d="m393.3 115.8v-14.7l-12.8 14.7h-4.1v-24.9h6.3v14.7l12.8-14.7h4.1v24.9z"/><path class="a" d="m419.8 115.8h-6.3v-18.8h-7.8v-6.1h21.8v6.1h-7.8v18.8z"/><path class="a" d="m454.8 97.2c1 2.3 1.1 5.7 0.4 7.8h-17.4c0 3.4 2.8 5.2 6.2 5.2 2.6 0 5.3-0.6 7.5-1.7l3.3 3.6c-2.7 2-6.4 3.9-10.9 3.9-7.6 0-12.7-5.5-12.7-12.8 0-7.1 4.8-12.8 12.6-12.8 5.4 0.1 9.1 2.6 11 6.8zm-16.7 3.9h11.4c0-0.6-0.2-1.4-0.6-2-0.8-1.6-2.6-2.8-5-2.8-3.4 0-5.7 2.4-5.8 4.8z"/><path class="a" d="m466.6 115.8h-7.3l9.7-13-9.2-12h7.3l5.5 6.9 5.4-6.9h7.3l-9.2 12.2 9.8 12.7h-7.3l-6.1-7.7z"/><path class="a" d="m93.4 142.9c-10 0-18.8-4.4-24.5-12.3-1.6-2.2-1.1-5.4 1.1-7 2.2-1.6 5.4-1.1 7 1.1 3.8 5.3 9.8 8.2 16.7 8.1 6.5-0.1 12.6-3 15.5-7.4 3.8-5.6 4.9-12.3 3.1-18.3-1.6-5.4-5.4-9.5-10.6-11.6-5.7-2.1-14.6-2.2-19.9 2-2.2 1.7-5.3 1.3-7-0.9-1.7-2.2-1.3-5.3 0.9-7 8.6-6.8 21.4-6.5 29.7-3.4h0.1c8 3.2 14 9.7 16.5 18 2.7 8.9 1.1 18.7-4.4 26.8-4.8 7.1-13.8 11.6-23.6 11.8-0.2 0.1-0.4 0.1-0.6 0.1z"/><path class="a" d="m247.9 30.9c-11.2-15-27.5-24.3-47.3-27h-0.3c-14.6-1-36.9 0.3-60.9 23.2l-0.1 0.1c-4.5 4.5-64.8 63.8-65.5 64.4-4.7 4.7-8 10.8-9.2 17.1-1.4 7.4 0 14.9 4.1 21.7 0.9 1.5 2.6 2.4 4.3 2.4 0.9 0 1.8-0.2 2.6-0.7 2.4-1.4 3.1-4.5 1.7-6.9-2.9-4.7-3.8-9.6-2.9-14.6 0.8-4.4 3.1-8.6 6.5-11.9 0.6-0.6 60.6-59.6 65.4-64.4 21.1-20 40.4-21.3 53.2-20.4 17 2.3 30.9 10.3 40.4 23 11.3 15.2 13.4 32.8 11.8 43.2-0.4 2.7 1.4 5.3 4.2 5.7 2.7 0.4 5.3-1.4 5.7-4.2 2.5-16.2-2.8-36.1-13.7-50.7z"/></svg>